<svg width="30" height="30" viewBox="0 0 30 30" fill="none" xmlns="http://www.w3.org/2000/svg">
<g id="Icon  5">
<path id="Oval" opacity="0.15" fill-rule="evenodd" clip-rule="evenodd" d="M15 30C23.2843 30 30 23.2843 30 15C30 6.71573 23.2843 0 15 0C6.71573 0 0 6.71573 0 15C0 23.2843 6.71573 30 15 30Z" fill="#36B37E"/>
<path id="Icon" d="M12.998 19.7803L8.92089 15.7275C8.80696 15.6136 8.74999 15.4671 8.74999 15.2881C8.74999 15.109 8.80696 14.9626 8.92089 14.8486L9.82421 13.9697C9.93814 13.8395 10.0806 13.7744 10.2515 13.7744C10.4224 13.7744 10.5729 13.8395 10.7031 13.9697L13.4375 16.7041L19.2968 10.8447C19.4271 10.7145 19.5776 10.6494 19.7485 10.6494C19.9194 10.6494 20.0618 10.7145 20.1757 10.8447L21.0791 11.7236C21.193 11.8376 21.25 11.984 21.25 12.1631C21.25 12.3421 21.193 12.4886 21.0791 12.6025L13.8769 19.7803C13.763 19.9105 13.6165 19.9756 13.4375 19.9756C13.2584 19.9756 13.112 19.9105 12.998 19.7803Z" fill="#36B37E"/>
</g>
</svg>
